<svg width="79" height="36" viewBox="0 0 79 36" fill="none" xmlns="http://www.w3.org/2000/svg">
<path d="M1.106 5.7H2.506V9.942H7.434V5.7H8.82V15.5H7.434V11.118H2.506V15.5H1.106V5.7ZM15.4415 15.598C14.7601 15.598 14.1208 15.4767 13.5235 15.234C12.9261 14.9913 12.3988 14.6507 11.9415 14.212C11.4935 13.764 11.1435 13.2367 10.8915 12.63C10.6395 12.014 10.5135 11.3373 10.5135 10.6C10.5135 9.86267 10.6395 9.19067 10.8915 8.584C11.1435 7.97733 11.4935 7.45 11.9415 7.002C12.3988 6.554 12.9261 6.20867 13.5235 5.966C14.1208 5.72333 14.7601 5.602 15.4415 5.602C16.1321 5.602 16.7761 5.72333 17.3735 5.966C17.9708 6.20867 18.4935 6.554 18.9415 7.002C19.3895 7.45 19.7395 7.97733 19.9915 8.584C20.2435 9.19067 20.3695 9.86267 20.3695 10.6C20.3695 11.3373 20.2435 12.014 19.9915 12.63C19.7395 13.2367 19.3895 13.764 18.9415 14.212C18.4935 14.6507 17.9708 14.9913 17.3735 15.234C16.7761 15.4767 16.1321 15.598 15.4415 15.598ZM15.4415 14.394C16.1135 14.394 16.7108 14.24 17.2335 13.932C17.7655 13.624 18.1808 13.1853 18.4795 12.616C18.7875 12.0467 18.9415 11.3747 18.9415 10.6C18.9415 9.816 18.7875 9.144 18.4795 8.584C18.1808 8.01467 17.7655 7.576 17.2335 7.268C16.7108 6.96 16.1135 6.806 15.4415 6.806C14.7695 6.806 14.1675 6.96 13.6355 7.268C13.1128 7.576 12.6975 8.01467 12.3895 8.584C12.0815 9.144 11.9275 9.816 11.9275 10.6C11.9275 11.3747 12.0815 12.0467 12.3895 12.616C12.6975 13.1853 13.1128 13.624 13.6355 13.932C14.1675 14.24 14.7695 14.394 15.4415 14.394ZM23.4383 15.5H22.0383V5.7H23.5783L27.0643 13.638L30.5363 5.7H32.0623V15.5H30.6763V8.416L27.5683 15.5H26.5463L23.4383 8.416V15.5ZM40.8406 6.876H35.6886V9.942H39.5526V11.118H35.6886V14.324H40.8406V15.5H34.2886V5.7H40.8406V6.876ZM49.8349 8.626C49.8349 9.11133 49.7229 9.578 49.4989 10.026C49.2749 10.4647 48.9109 10.8287 48.4069 11.118C47.9122 11.398 47.2589 11.538 46.4469 11.538H44.1929V15.5H42.7929V5.7H46.4469C47.2122 5.7 47.8422 5.83533 48.3369 6.106C48.8409 6.36733 49.2142 6.722 49.4569 7.17C49.7089 7.60867 49.8349 8.094 49.8349 8.626ZM46.4469 10.362C47.1375 10.362 47.6415 10.208 47.9589 9.9C48.2762 9.58267 48.4349 9.158 48.4349 8.626C48.4349 8.07533 48.2762 7.646 47.9589 7.338C47.6415 7.03 47.1375 6.876 46.4469 6.876H44.1929V10.362H46.4469ZM57.9429 15.5L57.0609 13.008H52.2029L51.3209 15.5H49.8929L53.4069 5.7H55.8429L59.3569 15.5H57.9429ZM54.8769 6.876H54.4009L52.6229 11.832H56.6409L54.8769 6.876ZM68.1263 8.696C67.781 8.03333 67.333 7.55267 66.7823 7.254C66.241 6.95533 65.6483 6.806 65.0043 6.806C64.3416 6.806 63.7396 6.96467 63.1983 7.282C62.6663 7.59933 62.2416 8.04267 61.9243 8.612C61.6163 9.18133 61.4623 9.844 61.4623 10.6C61.4623 11.356 61.6163 12.0187 61.9243 12.588C62.2323 13.1573 62.6523 13.6007 63.1843 13.918C63.7163 14.2353 64.3136 14.394 64.9763 14.394C65.695 14.394 66.339 14.212 66.9083 13.848C67.487 13.4747 67.9023 12.9847 68.1543 12.378V11.314H65.0883V10.166H69.5683V12.448C69.3536 13.0453 69.0223 13.582 68.5743 14.058C68.1356 14.534 67.6083 14.912 66.9923 15.192C66.3763 15.4627 65.7043 15.598 64.9763 15.598C64.295 15.598 63.6556 15.4767 63.0583 15.234C62.461 14.9913 61.9336 14.6507 61.4763 14.212C61.0283 13.764 60.6783 13.2367 60.4263 12.63C60.1743 12.014 60.0483 11.3373 60.0483 10.6C60.0483 9.86267 60.1743 9.19067 60.4263 8.584C60.6783 7.97733 61.0283 7.45 61.4763 7.002C61.9336 6.554 62.461 6.20867 63.0583 5.966C63.6556 5.72333 64.295 5.602 64.9763 5.602C65.611 5.602 66.213 5.70467 66.7823 5.91C67.3516 6.11533 67.8603 6.414 68.3083 6.806C68.7563 7.198 69.1063 7.67867 69.3583 8.248L68.1263 8.696ZM77.9064 6.876H72.7544V9.942H76.6184V11.118H72.7544V14.324H77.9064V15.5H71.3544V5.7H77.9064V6.876Z" fill="#071622"/>
<line x1="-8.74228e-08" y1="34.5" x2="79" y2="34.5" stroke="#071622" stroke-width="2"/>
</svg>
