<svg width="31" height="30" viewBox="0 0 31 30" fill="none" xmlns="http://www.w3.org/2000/svg">
<g id="magnifying glass">
<path id="Vector" d="M19.8424 13.125C19.8424 14.4229 19.4575 15.6917 18.7364 16.7709C18.0153 17.8501 16.9904 18.6912 15.7912 19.1879C14.5921 19.6846 13.2726 19.8146 11.9996 19.5614C10.7266 19.3081 9.55726 18.6831 8.63948 17.7653C7.7217 16.8476 7.09668 15.6782 6.84346 14.4052C6.59025 13.1322 6.72021 11.8127 7.21691 10.6136C7.71361 9.41446 8.55474 8.38954 9.63394 7.66844C10.7131 6.94734 11.9819 6.56246 13.2799 6.56246C15.0204 6.56246 16.6895 7.25386 17.9203 8.48457C19.151 9.71528 19.8424 11.3845 19.8424 13.125ZM27.0681 26.9132C26.9811 27.0004 26.8777 27.0696 26.7639 27.1167C26.6501 27.1639 26.5281 27.1882 26.4049 27.1882C26.2817 27.1882 26.1597 27.1639 26.0459 27.1167C25.932 27.0696 25.8287 27.0004 25.7416 26.9132L19.8752 21.0457C17.8351 22.7429 15.2192 23.5883 12.5717 23.4061C9.92412 23.2238 7.44875 22.028 5.66044 20.0672C3.87213 18.1064 2.90854 15.5317 2.97011 12.8787C3.03168 10.2256 4.11367 7.69835 5.99102 5.82266C7.86837 3.94697 10.3965 2.86722 13.0497 2.80799C15.7028 2.74876 18.2767 3.71463 20.2358 5.50467C22.195 7.29472 23.3887 9.77114 23.5686 12.4188C23.7485 15.0665 22.9008 17.6817 21.2017 19.7203L27.0681 25.5867C27.1553 25.6737 27.2245 25.7771 27.2716 25.891C27.3188 26.0048 27.3431 26.1268 27.3431 26.25C27.3431 26.3732 27.3188 26.4952 27.2716 26.609C27.2245 26.7228 27.1553 26.8262 27.0681 26.9132ZM13.2799 21.5625C14.9486 21.5625 16.58 21.0676 17.9675 20.1405C19.355 19.2134 20.4365 17.8956 21.0751 16.3539C21.7137 14.8121 21.8808 13.1156 21.5552 11.4789C21.2297 9.84217 20.4261 8.33875 19.2461 7.15875C18.0661 5.97874 16.5627 5.17515 14.9259 4.84958C13.2892 4.52402 11.5927 4.69111 10.051 5.32973C8.50922 5.96834 7.19147 7.0498 6.26434 8.43734C5.33722 9.82488 4.84237 11.4562 4.84237 13.125C4.84485 15.362 5.73459 17.5066 7.31639 19.0884C8.89819 20.6702 11.0429 21.56 13.2799 21.5625Z" fill="#071622"/>
</g>
</svg>
