<svg width="31" height="30" viewBox="0 0 31 30" fill="none" xmlns="http://www.w3.org/2000/svg">
<g id="paintbrush">
<path id="Vector" d="M19.5025 6.21965C20.4184 5.55313 21.3552 4.98612 22.2188 4.7072C23.0679 4.43221 24.133 4.35757 24.9259 5.15243C25.7149 5.93942 25.6691 7.0001 25.4074 7.86305C25.1431 8.73778 24.591 9.68322 23.9354 10.6077C22.6126 12.4724 20.6696 14.5191 18.9961 16.1717C17.5595 17.5912 16.2066 18.5798 15.0185 19.1835C15.1353 19.9448 15.0711 20.723 14.8313 21.4549C14.5915 22.1868 14.1827 22.8518 13.6381 23.3961C13.0742 23.9605 12.2447 24.3009 11.4701 24.5236C10.6667 24.7553 9.77698 24.8994 8.96576 24.991C7.97341 25.1017 6.9758 25.1585 5.97732 25.1613H5.90666C5.6498 25.1589 5.40279 25.0558 5.22103 24.8741C5.03927 24.6925 4.93593 24.4467 4.9332 24.1896L5.90536 24.1792L4.93451 24.1883V24.1176C4.9375 23.1183 4.99428 22.1199 5.1046 21.1268C5.19226 20.2795 5.34928 19.4415 5.57302 18.6204C5.79545 17.8465 6.13564 17.015 6.69826 16.4506C7.24375 15.9041 7.91049 15.4942 8.64421 15.2544C9.37793 15.0145 10.1579 14.9515 10.9205 15.0704C11.5303 13.9011 12.5234 12.5732 13.9482 11.1656C15.6112 9.52216 17.655 7.56449 19.5025 6.21965ZM7.05415 21.3494C6.98742 21.957 6.94163 22.5659 6.91808 23.1761C7.5278 23.1525 8.13753 23.1067 8.74463 23.0399C9.48182 22.9641 10.2117 22.8288 10.9271 22.6353C11.6153 22.4376 12.0471 22.2097 12.2499 22.0067C12.802 21.4542 13.1122 20.7048 13.1122 19.9234C13.1122 19.1419 12.802 18.3925 12.2499 17.84C11.9765 17.5664 11.652 17.3494 11.2948 17.2013C10.9376 17.0532 10.5548 16.977 10.1682 16.977C9.38741 16.977 8.6386 17.2874 8.0865 17.84C7.88369 18.0429 7.65603 18.4751 7.45845 19.1625C7.26499 19.8794 7.12978 20.6107 7.05415 21.3494ZM20.6565 7.80936C19.055 8.9748 17.2481 10.6758 15.6557 12.2406L17.9036 14.4903C19.4868 12.9124 21.1877 11.0896 22.3352 9.47109C22.9502 8.60421 23.3558 7.86436 23.5285 7.29473C23.7038 6.71332 23.5704 6.57321 23.5403 6.54178H23.539V6.54047C23.5207 6.52214 23.3911 6.3925 22.822 6.57583C22.2567 6.75916 21.5201 7.18081 20.6565 7.80936ZM14.3342 17.324L14.3329 17.3253C15.0924 16.9001 15.807 16.3991 16.4656 15.8299L14.2963 13.6588C13.7194 14.3065 13.2104 15.0116 12.7772 15.7631C13.4079 16.1586 13.9404 16.6929 14.3342 17.324Z" fill="#071622"/>
</g>
</svg>
