<svg width="31" height="30" viewBox="0 0 31 30" fill="none" xmlns="http://www.w3.org/2000/svg">
<g id="ruler">
<path id="Vector" d="M9.59468 17.6513L6.94468 20.3038L10.4797 23.8388L24.6209 9.69631L21.0859 6.16256L18.4322 8.81256L20.2009 10.5813L18.4322 12.3488L16.6647 10.5813L14.8972 12.3488L16.6647 14.1163L14.8972 15.8838L13.1297 14.1163L11.3622 15.8838L13.1297 17.6513L11.3622 19.4201L9.59468 17.6501V17.6513ZM21.9697 3.51006L27.2722 8.81256C27.3884 8.92865 27.4806 9.06651 27.5435 9.21825C27.6064 9.37 27.6388 9.53266 27.6388 9.69693C27.6388 9.8612 27.6064 10.0239 27.5435 10.1756C27.4806 10.3274 27.3884 10.4652 27.2722 10.5813L11.3634 26.4901C11.2473 26.6063 11.1095 26.6985 10.9577 26.7614C10.806 26.8243 10.6433 26.8567 10.4791 26.8567C10.3148 26.8567 10.1521 26.8243 10.0004 26.7614C9.84863 26.6985 9.71077 26.6063 9.59468 26.4901L4.29218 21.1876C4.05784 20.9531 3.92619 20.6353 3.92619 20.3038C3.92619 19.9724 4.05784 19.6545 4.29218 19.4201L20.2022 3.51006C20.4366 3.27572 20.7545 3.14407 21.0859 3.14407C21.4174 3.14407 21.7353 3.27572 21.9697 3.51006ZM18.4322 22.9538L20.2009 21.1863L23.0034 23.9901H24.7709V22.2226L21.9684 19.4188L23.7359 17.6513L27.0322 20.9463V26.2501H21.7297L18.4334 22.9538H18.4322ZM7.82718 12.3476L4.29218 8.81256C4.17596 8.69646 4.08376 8.5586 4.02085 8.40686C3.95795 8.25511 3.92557 8.09245 3.92557 7.92818C3.92557 7.76391 3.95795 7.60125 4.02085 7.4495C4.08376 7.29776 4.17596 7.1599 4.29218 7.04381L7.82718 3.50881C8.06159 3.27447 8.37947 3.14282 8.71093 3.14282C9.04238 3.14282 9.36027 3.27447 9.59468 3.50881L13.1322 7.04381L11.3622 8.81256L8.71218 6.16006L6.94343 7.92881L9.59468 10.5788L7.82718 12.3476Z" fill="#071622"/>
</g>
</svg>
