<svg width="31" height="30" viewBox="0 0 31 30" fill="none" xmlns="http://www.w3.org/2000/svg">
<g id="shopping bag">
<path id="Vector" d="M24.6571 26.4874H6.30589C6.0017 26.4874 5.70997 26.3666 5.49487 26.1515C5.27977 25.9364 5.15894 25.6446 5.15894 25.3405V4.69529C5.15894 4.3911 5.27977 4.09937 5.49487 3.88427C5.70997 3.66918 6.0017 3.54834 6.30589 3.54834H24.6571C24.9613 3.54834 25.2531 3.66918 25.4682 3.88427C25.6833 4.09937 25.8041 4.3911 25.8041 4.69529V25.3405C25.8041 25.6446 25.6833 25.9364 25.4682 26.1515C25.2531 26.3666 24.9613 26.4874 24.6571 26.4874ZM23.5102 24.1935V5.84225H7.45284V24.1935H23.5102ZM12.0407 8.13615V10.4301C12.0407 11.3426 12.4032 12.2178 13.0485 12.8631C13.6937 13.5084 14.5689 13.8709 15.4815 13.8709C16.3941 13.8709 17.2693 13.5084 17.9146 12.8631C18.5599 12.2178 18.9224 11.3426 18.9224 10.4301V8.13615H21.2163V10.4301C21.2163 11.951 20.6121 13.4097 19.5366 14.4852C18.4611 15.5606 17.0025 16.1648 15.4815 16.1648C13.9606 16.1648 12.5019 15.5606 11.4264 14.4852C10.3509 13.4097 9.74675 11.951 9.74675 10.4301V8.13615H12.0407Z" fill="#071622"/>
</g>
</svg>
